<?xml version="1.0" encoding="UTF-8" standalone="no"?>
<svg
   xmlns:dc="http://purl.org/dc/elements/1.1/"
   xmlns:cc="http://creativecommons.org/ns#"
   xmlns:rdf="http://www.w3.org/1999/02/22-rdf-syntax-ns#"
   xmlns:svg="http://www.w3.org/2000/svg"
   xmlns="http://www.w3.org/2000/svg"
   width="32"
   height="32"
   viewBox="0 0 8.4666666 8.4666666"
   version="1.1"
   id="svg8">
  <defs
     id="defs2" />
  <metadata
     id="metadata5">
    <rdf:RDF>
      <cc:Work
         rdf:about="">
        <dc:format>image/svg+xml</dc:format>
        <dc:type
           rdf:resource="http://purl.org/dc/dcmitype/StillImage" />
        <dc:title></dc:title>
      </cc:Work>
    </rdf:RDF>
  </metadata>
  <path
     id="path7731"
     transform="scale(0.26458333,0.26458333)"
     d="M 16 4.1015625 A 11.899187 11.899187 0 0 0 4.1015625 16 A 11.899187 11.899187 0 0 0 16 27.898438 A 11.899187 11.899187 0 0 0 27.898438 16 A 11.899187 11.899187 0 0 0 16 4.1015625 z M 16 7.7695312 A 8.2308938 8.2308938 0 0 1 24.230469 16 A 8.2308938 8.2308938 0 0 1 16 24.230469 A 8.2308938 8.2308938 0 0 1 7.7695312 16 A 8.2308938 8.2308938 0 0 1 16 7.7695312 z "
     style="opacity:1;fill:#111111;fill-opacity:1;stroke:none;stroke-width:0.80000001;stroke-miterlimit:4;stroke-dasharray:none;stroke-dashoffset:0;stroke-opacity:1" />
</svg>
